<svg version="1.0" xmlns="http://www.w3.org/2000/svg"
 width="200.000000pt" height="200.000000pt" viewBox="0 0 200.000000 200.000000"
 preserveAspectRatio="xMidYMid meet">
<metadata>
Created by potrace 1.10, written by Peter Selinger 2001-2011
</metadata>
<g transform="translate(0.000000,200.000000) scale(0.100000,-0.100000)"
fill="#f3f3f3" stroke="none">
<path d="M1305 1491 c-11 -5 -45 -34 -75 -65 -47 -49 -59 -56 -93 -56 -42 0
-98 -22 -118 -47 -10 -12 -9 -21 6 -50 l19 -35 -27 -20 c-17 -12 -26 -26 -23
-37 6 -21 -65 -71 -109 -77 -24 -3 -37 2 -55 21 -13 14 -29 25 -37 25 -8 0
-13 12 -13 31 0 35 -47 89 -77 89 -16 0 -18 6 -15 38 2 20 9 43 14 50 7 8 7
12 0 12 -19 0 -105 -105 -130 -158 -117 -254 35 -542 312 -593 102 -18 207 6
305 72 58 39 113 100 77 86 -10 -4 -19 1 -25 12 -6 10 -24 24 -40 31 -25 10
-35 9 -60 -3 -23 -12 -31 -12 -31 -3 0 16 -42 56 -58 56 -7 0 -12 10 -12 23
-1 12 -7 39 -14 59 -12 34 -12 40 6 60 11 13 27 33 35 46 9 12 21 22 28 22 7
0 24 13 37 29 l24 28 28 -20 c21 -15 33 -18 45 -10 24 14 51 73 51 112 0 28
11 45 59 96 63 65 75 90 69 146 -3 32 -5 34 -43 36 -22 1 -49 -2 -60 -6z m27
-73 c-65 -65 -71 -75 -47 -80 8 -2 -9 -16 -38 -32 l-52 -28 29 31 c26 27 27
31 10 31 -13 0 -5 8 24 26 59 35 53 41 -8 7 -41 -23 -47 -30 -36 -39 12 -9 4
-22 -46 -78 -52 -58 -63 -65 -71 -51 -8 15 -13 13 -41 -14 -27 -26 -35 -29
-44 -18 -9 11 -5 20 18 42 l30 28 -21 33 -20 33 33 21 c18 11 50 20 70 20 33
0 48 9 109 65 66 61 74 65 117 65 l47 0 -63 -62z m48 -16 c0 -5 -13 -21 -29
-36 -40 -38 -62 -24 -25 15 26 28 54 38 54 21z m-711 -119 c-4 -22 3 -31 26
-37 14 -4 25 -11 25 -16 0 -6 7 -10 15 -10 10 0 15 -10 15 -29 0 -31 11 -45
65 -86 28 -22 39 -25 75 -19 l43 7 -5 -33 c-4 -28 0 -36 32 -58 28 -21 39 -37
48 -76 9 -36 23 -60 57 -93 42 -42 47 -44 84 -38 33 5 44 3 63 -14 l22 -21
-35 -31 c-18 -16 -59 -42 -89 -57 -49 -24 -66 -27 -160 -27 -92 0 -112 3 -160
26 -68 32 -160 119 -191 179 -66 131 -52 312 32 413 22 26 40 36 38 20z m592
-7 c-6 -8 -11 -18 -10 -22 1 -5 1 -27 0 -50 -1 -50 -34 -75 -76 -56 -20 9 -27
8 -40 -5 -28 -27 -6 36 24 70 39 45 136 105 102 63z m-174 -134 c-15 -16 -24
-32 -20 -36 7 -7 -31 -44 -74 -73 -31 -20 -53 -11 -46 19 8 30 61 98 77 98 7
0 23 11 36 25 21 23 26 24 39 10 13 -13 12 -18 -12 -43z m-87 -136 c0 -3 -4
-8 -10 -11 -5 -3 -10 -1 -10 4 0 6 5 11 10 11 6 0 10 -2 10 -4z"/>
<path d="M647 1165 c-16 -11 -16 -13 1 -27 21 -19 42 -13 42 12 0 23 -21 31
-43 15z m33 -15 c0 -5 -4 -10 -10 -10 -5 0 -10 5 -10 10 0 6 5 10 10 10 6 0
10 -4 10 -10z"/>
<path d="M681 1017 c-16 -16 -13 -44 6 -51 21 -8 46 15 38 36 -9 22 -30 29
-44 15z m26 -33 c-9 -9 -28 6 -21 18 4 6 10 6 17 -1 6 -6 8 -13 4 -17z"/>
<path d="M758 962 c-7 -10 -22 -24 -33 -30 -18 -10 -17 -11 13 -12 19 0 31 4
27 10 -3 5 -1 18 4 27 9 16 10 14 11 -9 0 -24 4 -28 28 -27 27 0 27 1 5 11
-13 6 -23 17 -23 24 0 22 -18 25 -32 6z"/>
<path d="M940 950 c0 -16 5 -21 23 -18 12 2 22 10 22 18 0 8 -10 16 -22 18
-18 3 -23 -2 -23 -18z m30 0 c0 -5 -4 -10 -10 -10 -5 0 -10 5 -10 10 0 6 5 10
10 10 6 0 10 -4 10 -10z"/>
<path d="M715 900 c3 -5 11 -10 16 -10 6 0 19 -10 30 -22 l19 -23 6 21 c3 12
15 26 27 32 21 10 21 11 -5 11 -24 1 -28 -3 -28 -26 -1 -24 -2 -26 -11 -10 -5
9 -7 22 -4 27 4 6 -7 10 -25 10 -18 0 -29 -4 -25 -10z"/>
<path d="M672 878 c-8 -8 -9 -15 -1 -25 15 -17 25 -17 32 1 8 21 -16 39 -31
24z"/>
<path d="M1080 756 c0 -8 4 -17 9 -20 11 -7 33 18 24 27 -12 12 -33 7 -33 -7z"/>
<path d="M880 1422 c0 -40 -1 -41 -37 -45 l-38 -4 38 -1 c37 -2 37 -2 37 -44
0 -50 8 -47 12 5 2 36 3 37 43 38 l40 2 -39 6 c-37 6 -40 9 -44 41 -5 50 -12
51 -12 2z"/>
<path d="M876 1192 c-3 -6 -1 -14 5 -17 15 -10 25 3 12 16 -7 7 -13 7 -17 1z"/>
<path d="M1340 1120 c0 -5 5 -10 10 -10 6 0 10 5 10 10 0 6 -4 10 -10 10 -5 0
-10 -4 -10 -10z"/>
<path d="M1180 990 c0 -5 5 -10 10 -10 6 0 10 5 10 10 0 6 -4 10 -10 10 -5 0
-10 -4 -10 -10z"/>
<path d="M1085 970 c-3 -5 -1 -10 4 -10 6 0 11 5 11 10 0 6 -2 10 -4 10 -3 0
-8 -4 -11 -10z"/>
<path d="M1327 956 c-8 -20 6 -36 19 -22 8 9 7 15 -2 23 -9 9 -13 9 -17 -1z"/>
<path d="M955 530 c3 -5 8 -10 11 -10 2 0 4 5 4 10 0 6 -5 10 -11 10 -5 0 -7
-4 -4 -10z"/>
<path d="M677 504 c-4 -4 -7 -27 -7 -51 l0 -43 51 0 50 0 -3 48 -3 47 -40 3
c-23 2 -44 0 -48 -4z m83 -49 c0 -34 -1 -35 -40 -35 -39 0 -40 1 -40 35 0 34
1 35 40 35 39 0 40 -1 40 -35z"/>
<path d="M792 453 c2 -57 2 -57 5 -10 4 44 6 47 33 47 27 0 29 -3 33 -47 l3
-48 2 48 c2 45 3 47 31 47 28 0 30 -3 34 -47 4 -45 4 -44 3 7 l-1 55 -72 3
-73 3 2 -58z"/>
<path d="M963 455 c0 -33 2 -45 4 -27 2 18 2 45 0 60 -2 15 -4 0 -4 -33z"/>
<path d="M997 504 c-4 -4 -7 -27 -7 -51 l0 -43 45 0 c33 0 45 -4 45 -15 0 -10
-11 -15 -35 -15 -19 0 -35 -3 -35 -8 0 -4 18 -6 40 -4 l41 4 -3 67 -3 66 -40
3 c-23 2 -44 0 -48 -4z m83 -49 c0 -33 -2 -35 -35 -35 -33 0 -35 2 -35 35 0
33 2 35 35 35 33 0 35 -2 35 -35z"/>
<path d="M1117 504 c-4 -4 -7 -27 -7 -51 l0 -43 51 0 50 0 -3 48 -3 47 -40 3
c-23 2 -44 0 -48 -4z m83 -49 c0 -34 -1 -35 -40 -35 -39 0 -40 1 -40 35 0 34
1 35 40 35 39 0 40 -1 40 -35z"/>
<path d="M1230 500 c0 -5 19 -10 42 -10 l42 0 -42 -31 c-56 -41 -54 -54 8 -54
61 0 67 13 8 17 l-42 3 42 29 c57 39 55 56 -8 56 -27 0 -50 -4 -50 -10z"/>
<path d="M518 338 c-6 -16 3 -58 11 -58 4 0 5 16 3 35 -4 37 -8 43 -14 23z"/>
<path d="M1347 343 c-10 -9 -8 -63 2 -63 4 0 7 14 5 31 -3 20 0 28 8 23 7 -4
8 -3 4 4 -8 14 -10 14 -19 5z"/>
<path d="M1388 338 c-6 -16 3 -58 11 -58 4 0 5 16 3 35 -4 37 -8 43 -14 23z"/>
<path d="M1748 339 c-6 -17 2 -59 11 -59 7 0 6 58 -1 66 -3 3 -8 0 -10 -7z"/>
<path d="M111 326 c-16 -19 -3 -46 23 -45 17 1 18 2 3 6 -20 5 -19 40 1 36 7
-2 12 2 12 7 0 15 -26 12 -39 -4z"/>
<path d="M949 339 c-8 -29 -6 -59 5 -59 13 0 16 43 4 56 -5 4 -9 5 -9 3z"/>
<path d="M1700 311 c0 -23 5 -31 18 -31 12 0 14 2 4 8 -7 5 -10 16 -7 24 4 9
2 19 -4 23 -7 4 -11 -5 -11 -24z"/>
<path d="M180 315 c-10 -11 -10 -19 -2 -27 15 -15 44 -2 40 19 -4 23 -22 27
-38 8z m30 -15 c0 -5 -4 -10 -10 -10 -5 0 -10 5 -10 10 0 6 5 10 10 10 6 0 10
-4 10 -10z"/>
<path d="M241 321 c0 -3 4 -15 9 -26 7 -17 9 -17 9 -2 1 21 21 23 21 2 0 -8 4
-15 10 -15 20 0 -8 45 -29 46 -11 1 -21 -1 -20 -5z"/>
<path d="M310 317 c0 -7 5 -18 12 -25 14 -14 38 2 38 24 0 20 -18 17 -23 -3
-4 -17 -5 -17 -6 0 -1 20 -21 24 -21 4z"/>
<path d="M383 319 c-17 -17 -4 -39 21 -38 20 0 20 1 1 9 -18 8 -18 9 -2 9 10
1 17 6 15 13 -6 17 -22 20 -35 7z"/>
<path d="M441 321 c0 -3 4 -15 9 -26 7 -17 9 -17 9 -2 1 9 6 17 12 17 6 0 9
-7 5 -15 -3 -9 0 -15 9 -15 24 0 1 45 -24 46 -11 1 -21 -1 -20 -5z"/>
<path d="M567 324 c-4 -4 -7 -16 -7 -26 0 -12 7 -18 23 -17 16 1 18 2 5 6 -21
5 -23 19 -6 29 7 4 8 3 4 -4 -4 -7 -2 -12 4 -12 14 0 8 22 -6 27 -6 2 -13 0
-17 -3z"/>
<path d="M628 305 c2 -14 8 -25 13 -25 5 0 6 7 3 15 -4 8 -1 15 5 15 6 0 11
-7 11 -15 0 -8 4 -15 10 -15 18 0 -7 43 -27 46 -17 3 -19 -1 -15 -21z"/>
<path d="M707 323 c-15 -15 -7 -43 13 -43 11 0 20 4 20 10 0 5 -7 7 -15 4 -8
-4 -15 -1 -15 5 0 6 7 11 15 11 8 0 15 5 15 10 0 11 -23 14 -33 3z"/>
<path d="M771 321 c-18 -12 -6 -41 16 -40 17 1 17 2 1 6 -10 2 -18 8 -18 13 0
4 10 6 23 2 20 -5 21 -4 8 11 -7 9 -14 17 -15 17 0 0 -7 -4 -15 -9z"/>
<path d="M877 323 c-17 -16 -6 -43 16 -43 16 0 24 6 24 18 0 24 -25 40 -40 25z
m23 -23 c0 -5 -4 -10 -10 -10 -5 0 -10 5 -10 10 0 6 5 10 10 10 6 0 10 -4 10
-10z"/>
<path d="M1034 315 c-8 -19 3 -35 24 -36 14 0 13 -2 -3 -10 -20 -9 -20 -9 0
-6 15 1 21 11 23 35 2 19 -1 32 -8 32 -7 0 -9 -8 -5 -20 5 -14 2 -20 -10 -20
-12 0 -15 6 -10 20 7 23 -3 28 -11 5z"/>
<path d="M1104 315 c-7 -18 3 -35 21 -35 21 0 28 19 15 35 -16 19 -29 19 -36
0z m31 -15 c-3 -5 -10 -10 -16 -10 -5 0 -9 5 -9 10 0 6 7 10 16 10 8 0 12 -4
9 -10z"/>
<path d="M1171 308 c-1 -22 4 -28 19 -28 15 0 20 6 19 28 -2 23 -2 24 -6 5 -2
-13 -8 -23 -13 -23 -5 0 -11 10 -13 23 -4 19 -4 18 -6 -5z"/>
<path d="M1237 303 c-3 -15 1 -23 9 -23 8 0 11 6 7 17 -4 11 -3 14 5 9 7 -4
12 -1 12 7 0 23 -28 15 -33 -10z"/>
<path d="M1430 304 c0 -13 4 -24 10 -24 5 0 7 7 4 15 -4 10 0 15 11 15 11 0
15 -5 11 -15 -3 -8 -1 -15 5 -15 6 0 9 10 7 23 -4 32 -48 33 -48 1z"/>
<path d="M1503 314 c-4 -10 1 -22 11 -29 13 -10 14 -14 4 -19 -7 -3 -4 -5 7
-3 36 4 29 66 -8 67 -4 0 -10 -7 -14 -16z m37 -15 c0 -5 -7 -9 -15 -9 -15 0
-20 12 -9 23 8 8 24 -1 24 -14z"/>
<path d="M1574 316 c-8 -20 3 -36 24 -35 15 1 15 2 0 6 -21 5 -23 19 -6 29 7
4 8 3 4 -4 -4 -7 -2 -12 4 -12 15 0 8 22 -8 28 -7 2 -15 -3 -18 -12z"/>
<path d="M1640 303 c0 -12 4 -23 10 -23 5 0 6 7 3 17 -4 11 -3 14 5 9 7 -4 12
-1 12 7 0 7 -7 14 -15 14 -9 0 -15 -10 -15 -24z"/>
<path d="M1790 292 c0 -21 4 -32 8 -26 4 6 15 13 25 17 17 6 24 36 10 38 -5 0
-16 2 -25 4 -15 3 -18 -4 -18 -33z m40 7 c0 -5 -7 -9 -15 -9 -15 0 -20 12 -9
23 8 8 24 -1 24 -14z"/>
<path d="M1867 323 c-10 -10 -8 -23 4 -23 5 0 7 4 4 10 -3 6 1 7 9 4 9 -3 16
-1 16 5 0 12 -23 15 -33 4z"/>
<path d="M1870 290 c-12 -8 -11 -10 8 -10 12 0 22 5 22 10 0 13 -11 13 -30 0z"/>
</g>
</svg>
